<svg width="11" height="12" viewBox="0 0 11 12" fill="none" xmlns="http://www.w3.org/2000/svg">
<path d="M5.6705 0C8.39485 0 10.6408 2.17232 10.6408 4.85997C10.6408 6.21431 10.1482 7.47166 9.33753 8.53737C8.44316 9.71292 7.34082 10.7372 6.10001 11.5411C5.81603 11.7269 5.55974 11.7409 5.24807 11.5411C4.00019 10.7372 2.89785 9.71292 2.01114 8.53737C1.19985 7.47166 0.707886 6.21431 0.707886 4.85997C0.707886 2.17232 2.95382 0 5.6705 0ZM5.6705 3.37533C4.76966 3.37533 4.03496 4.11794 4.03496 5.01129C4.03496 5.91165 4.76966 6.61979 5.6705 6.61979C6.57194 6.61979 7.31371 5.91165 7.31371 5.01129C7.31371 4.11794 6.57194 3.37533 5.6705 3.37533Z" fill="black"/>
</svg>
